# This file uses meters as units for non-parametric coordinates.

mtllib ChocolateChip.mtl
g default
v -25.462965 0.829367 25.462965
v 25.462965 0.829367 25.462967
v -9.712582 53.942131 8.130436
v 9.712582 53.942131 8.130436
v -9.712582 53.942131 -8.130432
v 9.712582 53.942131 -8.130432
v -25.462965 0.829367 -25.462965
v 25.462965 0.829367 -25.462965
v -12.267649 56.122932 0.000001
v 32.161461 27.069750 -32.161465
v -0.000000 0.829313 -32.161465
v -32.161457 27.069750 -32.161461
v 32.161461 0.829313 -0.000000
v -32.161457 0.829313 0.000001
v 0.000000 0.829313 32.161461
v 32.161461 27.069750 32.161465
v 0.000001 56.122932 10.269296
v -32.161461 27.069750 32.161465
v 12.267653 56.122932 0.000001
v 0.000001 56.122932 -10.269292
v 0.000001 27.069750 43.923615
v 0.000001 27.069754 -43.923611
v 0.000001 0.829214 -0.000001
v 43.923611 27.069750 0.000000
v -43.923611 27.069750 -0.000000
v -16.319445 11.059130 38.194447
v 16.319445 11.059126 38.194447
v 8.706968 44.369701 20.378006
v -8.706968 44.369701 20.378006
v -4.130372 64.657043 3.068502
v 8.668576 63.742592 5.506665
v 8.668578 63.742592 -5.506666
v -4.130373 64.657043 -3.068502
v -8.706968 44.369701 -20.378006
v 8.706968 44.369701 -20.378004
v 16.319447 11.059130 -38.194447
v -16.319447 11.059130 -38.194447
v -16.319445 0.829260 -16.319445
v 16.319445 0.829260 -16.319443
v 16.319447 0.829260 16.319445
v -16.319447 0.829260 16.319445
v 38.194447 11.059130 16.319443
v 38.194447 11.059130 -16.319447
v 20.378006 44.369701 -8.706966
v 20.378008 44.369701 8.706970
v -38.194447 11.059130 -16.319443
v -38.194447 11.059130 16.319445
v -20.378006 44.369701 8.706970
v -20.378008 44.369701 -8.706966
v -0.000000 10.021864 40.972218
v 17.534723 27.069750 40.972221
v 0.000001 44.923111 21.860050
v -17.534723 27.069750 40.972218
v -0.479064 63.470444 5.916733
v 9.341627 64.272461 0.000000
v -0.479063 63.470440 -5.916733
v -4.503889 65.427910 -0.000000
v -0.000000 44.923111 -21.860046
v 17.534723 27.069750 -40.972221
v 0.000001 10.021864 -40.972221
v -17.534723 27.069750 -40.972218
v -0.000000 0.829237 -17.534723
v 17.534723 0.829237 -0.000001
v 0.000001 0.829237 17.534723
v -17.534723 0.829237 0.000001
v 40.972218 10.021864 0.000000
v 40.972221 27.069750 -17.534723
v 21.860050 44.923111 0.000000
v 40.972218 27.069750 17.534723
v -40.972218 10.021864 -0.000000
v -40.972221 27.069750 17.534723
v -21.860050 44.923111 0.000001
v -40.972218 27.069750 -17.534723
v -15.104165 0.829329 29.947914
v 15.104165 0.829329 29.947916
v 29.947916 12.096395 29.947914
v 15.978216 43.816277 15.978216
v 5.761324 55.402283 9.562504
v -5.761322 55.402283 9.562504
v -15.978216 43.816277 15.978216
v -29.947916 12.096395 29.947914
v 11.423320 55.402283 4.822827
v 11.423320 55.402283 -4.822824
v 5.221208 54.957405 -9.040154
v -5.761320 55.402283 -9.562500
v -11.423319 55.402283 -4.822824
v -11.423319 55.402283 4.822827
v 15.978216 43.816277 -15.978216
v 29.947916 12.096395 -29.947914
v 15.104165 0.829329 -29.947914
v -15.104165 0.829329 -29.947916
v -29.947916 12.096395 -29.947914
v -15.978216 43.816277 -15.978216
v 29.947916 0.829329 -15.104165
v 29.947916 0.829329 15.104165
v -29.947916 0.829329 15.104165
v -29.947916 0.829329 -15.104165
v 13.295192 70.071686 5.085889
v 10.341784 74.305008 3.221927
v 10.398474 74.790085 -0.000000
v 15.733691 65.522240 5.461962
v 16.191908 65.353279 0.000001
v 15.733694 65.522240 -5.201715
v 13.295193 70.071686 -5.085889
v 10.341784 74.305008 -3.221927
v 23.925573 62.805275 3.146866
v 24.990494 63.432266 2.928772
v 25.155243 63.359016 -0.000000
v 22.054140 62.445610 2.928771
v 21.944237 62.302658 0.000000
v 22.054132 62.445610 -2.928772
v 23.925573 62.805275 -3.146866
v 24.990494 63.432266 -2.928772
v 20.367952 52.706680 1.494981
v 20.962620 52.407738 1.391370
v 20.301970 51.038361 0.000000
v 22.247143 52.349251 -0.000000
v 19.812393 53.073112 1.391370
v 18.488838 53.064194 0.000000
v 19.812374 53.073097 -1.391370
v 20.367952 52.706680 -1.494981
v 20.962620 52.407738 -1.391370
v 7.624427 68.856209 5.552578
v 4.357495 71.461388 3.249656
v 4.149030 71.986198 -0.000000
v 4.357493 71.461388 -3.249656
v 7.624428 68.856209 -5.552578
v 12.602614 65.563881 -5.723193
v 13.161687 65.643341 0.000001
v 12.602612 65.563881 5.220530
v 18.859787 66.239700 4.069926
v 20.335930 69.698677 3.068327
v 20.543118 69.865410 -0.000000
v 20.335926 69.698677 -3.068327
v 18.859787 66.239700 -4.069926
v 18.069990 65.200600 -4.664995
v 18.183424 64.960068 0.000000
v 18.069992 65.200600 4.664993
v 23.233778 57.795540 2.157103
v 23.887579 57.460236 -0.000000
v 23.233778 57.795540 -2.157103
v 22.134789 57.737640 -2.317734
v 21.036604 57.808563 -2.157103
v 20.382048 58.015076 0.000000
v 21.036619 57.808563 2.157102
v 22.134789 57.737640 2.317734
v 16.765049 71.967361 3.126309
v 16.915424 72.254265 -0.000000
v 16.765047 71.967361 -3.126309
v 16.759212 67.686234 -4.453441
v 17.188065 65.322014 -4.775028
v 17.431648 65.108505 0.000000
v 17.188065 65.322014 5.386363
v 16.759212 67.686234 4.453441
v 22.987610 66.611496 2.996127
v 23.172844 66.654076 -0.000000
v 22.987610 66.611496 -2.996127
v 21.480616 64.462875 -3.592373
v 20.131220 63.775284 -3.766745
v 20.129112 63.585236 0.000000
v 20.131226 63.775284 3.766744
v 21.480616 64.462875 3.592373
vt 0.375000 0.000000
vt 0.375000 1.000000
vt 0.625000 0.000000
vt 0.625000 1.000000
vt 0.375000 0.250000
vt 0.625000 0.250000
vt 0.375000 0.500000
vt 0.125000 0.250000
vt 0.625000 0.500000
vt 0.875000 0.250000
vt 0.375000 0.750000
vt 0.125000 0.000000
vt 0.625000 0.750000
vt 0.875000 0.000000
vt 0.500000 0.125000
vt 0.500000 0.375000
vt 0.500000 0.625000
vt 0.500000 0.875000
vt 0.750000 0.125000
vt 0.250000 0.125000
vt 0.500000 0.000000
vt 0.500000 1.000000
vt 0.625000 0.125000
vt 0.500000 0.250000
vt 0.375000 0.125000
vt 0.625000 0.375000
vt 0.750000 0.250000
vt 0.500000 0.500000
vt 0.375000 0.375000
vt 0.250000 0.250000
vt 0.625000 0.625000
vt 0.875000 0.125000
vt 0.500000 0.750000
vt 0.375000 0.625000
vt 0.125000 0.125000
vt 0.625000 0.875000
vt 0.750000 0.000000
vt 0.375000 0.875000
vt 0.250000 0.000000
vt 0.437500 0.062500
vt 0.562500 0.062500
vt 0.562500 0.187500
vt 0.437500 0.187500
vt 0.437500 0.312500
vt 0.562500 0.312500
vt 0.562500 0.437500
vt 0.437500 0.437500
vt 0.437500 0.562500
vt 0.562500 0.562500
vt 0.562500 0.687500
vt 0.437500 0.687500
vt 0.437500 0.812500
vt 0.562500 0.812500
vt 0.562500 0.937500
vt 0.437500 0.937500
vt 0.687500 0.062500
vt 0.812500 0.062500
vt 0.812500 0.187500
vt 0.687500 0.187500
vt 0.187500 0.062500
vt 0.312500 0.062500
vt 0.312500 0.187500
vt 0.187500 0.187500
vt 0.500000 0.062500
vt 0.562500 0.125000
vt 0.500000 0.187500
vt 0.437500 0.125000
vt 0.500000 0.312500
vt 0.562500 0.375000
vt 0.500000 0.437500
vt 0.437500 0.375000
vt 0.500000 0.562500
vt 0.562500 0.625000
vt 0.500000 0.687500
vt 0.437500 0.625000
vt 0.500000 0.812500
vt 0.562500 0.875000
vt 0.500000 0.937500
vt 0.437500 0.875000
vt 0.750000 0.062500
vt 0.812500 0.125000
vt 0.750000 0.187500
vt 0.687500 0.125000
vt 0.250000 0.062500
vt 0.312500 0.125000
vt 0.250000 0.187500
vt 0.187500 0.125000
vt 0.437500 0.000000
vt 0.437500 1.000000
vt 0.562500 0.000000
vt 0.562500 1.000000
vt 0.625000 0.062500
vt 0.625000 0.187500
vt 0.562500 0.250000
vt 0.437500 0.250000
vt 0.375000 0.187500
vt 0.375000 0.062500
vt 0.625000 0.312500
vt 0.687500 0.250000
vt 0.625000 0.437500
vt 0.812500 0.250000
vt 0.562500 0.500000
vt 0.437500 0.500000
vt 0.375000 0.437500
vt 0.187500 0.250000
vt 0.375000 0.312500
vt 0.312500 0.250000
vt 0.625000 0.562500
vt 0.875000 0.187500
vt 0.625000 0.687500
vt 0.875000 0.062500
vt 0.562500 0.750000
vt 0.437500 0.750000
vt 0.375000 0.687500
vt 0.125000 0.062500
vt 0.375000 0.562500
vt 0.125000 0.187500
vt 0.625000 0.812500
vt 0.812500 0.000000
vt 0.625000 0.937500
vt 0.687500 0.000000
vt 0.375000 0.937500
vt 0.312500 0.000000
vt 0.375000 0.812500
vt 0.187500 0.000000
vt 0.437500 0.312500
vt 0.500000 0.312500
vt 0.437500 0.375000
vt 0.562500 0.312500
vt 0.562500 0.375000
vt 0.562500 0.437500
vt 0.500000 0.437500
vt 0.437500 0.437500
vt 0.437500 0.312500
vt 0.500000 0.312500
vt 0.437500 0.375000
vt 0.562500 0.312500
vt 0.562500 0.375000
vt 0.562500 0.437500
vt 0.500000 0.437500
vt 0.437500 0.437500
vt 0.437500 0.312500
vt 0.500000 0.312500
vt 0.437500 0.375000
vt 0.562500 0.312500
vt 0.562500 0.375000
vt 0.562500 0.437500
vt 0.500000 0.437500
vt 0.437500 0.437500
vt 0.500000 0.312500
vt 0.437500 0.312500
vt 0.437500 0.375000
vt 0.437500 0.437500
vt 0.500000 0.437500
vt 0.562500 0.437500
vt 0.562500 0.375000
vt 0.562500 0.312500
vt 0.500000 0.312500
vt 0.437500 0.312500
vt 0.437500 0.375000
vt 0.437500 0.437500
vt 0.500000 0.437500
vt 0.562500 0.437500
vt 0.562500 0.375000
vt 0.562500 0.312500
vt 0.437500 0.312500
vt 0.437500 0.375000
vt 0.437500 0.437500
vt 0.500000 0.437500
vt 0.562500 0.437500
vt 0.562500 0.375000
vt 0.562500 0.312500
vt 0.500000 0.312500
vt 0.437500 0.312500
vt 0.437500 0.375000
vt 0.437500 0.437500
vt 0.500000 0.437500
vt 0.562500 0.437500
vt 0.562500 0.375000
vt 0.562500 0.312500
vt 0.500000 0.312500
vt 0.437500 0.312500
vt 0.437500 0.375000
vt 0.437500 0.437500
vt 0.500000 0.437500
vt 0.562500 0.437500
vt 0.562500 0.375000
vt 0.562500 0.312500
vt 0.500000 0.312500
vn -0.425418 -0.798774 0.425418
vn -0.162371 -0.882676 0.441043
vn -0.311070 -0.361767 0.878840
vn -0.667176 -0.331287 0.667177
vn -0.000000 -0.905001 0.425411
vn -0.000000 -0.392085 0.919929
vn -0.000000 0.407593 0.913164
vn -0.324216 0.416931 0.849148
vn -0.640104 0.424893 0.640104
vn 0.162371 -0.882676 0.441042
vn 0.311070 -0.361767 0.878840
vn 0.425418 -0.798774 0.425418
vn 0.667177 -0.331287 0.667176
vn 0.640104 0.424893 0.640104
vn 0.324216 0.416931 0.849148
vn 0.232084 0.776376 0.585984
vn -0.000000 0.770756 0.637130
vn 0.436196 0.784162 0.441387
vn 0.532387 0.624046 0.571954
vn 0.270258 0.621972 0.734923
vn -0.022500 0.652542 0.757418
vn -0.232084 0.776376 0.585984
vn -0.436196 0.784162 0.441387
vn -0.318751 0.668557 0.671885
vn -0.508878 0.663996 0.547861
vn -0.561269 0.643000 0.521084
vn -0.672770 0.650125 0.353154
vn -0.164910 0.476905 0.863346
vn 0.600062 -0.420624 0.680442
vn -0.121020 -0.362109 0.924246
vn -0.241048 -0.970513 0.000002
vn 0.893485 -0.449094 0.000000
vn -0.702254 0.711927 0.000000
vn -0.755814 0.654787 0.000000
vn 0.466644 0.172180 0.867524
vn 0.742426 0.567688 0.355717
vn 0.829293 0.558814 -0.000000
vn 0.983840 -0.179048 0.000000
vn -0.708942 -0.009387 0.705204
vn -0.995200 0.097867 0.000002
vn -0.708944 -0.009390 -0.705202
vn -0.121017 -0.362108 -0.924247
vn 0.732566 0.571905 -0.369150
vn 0.467436 0.130681 -0.874315
vn 0.489755 0.640091 -0.591967
vn 0.274880 0.622221 -0.732995
vn -0.153758 0.463982 -0.872399
vn 0.003358 0.652876 -0.757457
vn -0.561269 0.643000 -0.521084
vn -0.672770 0.650125 -0.353154
vn 0.600062 -0.420624 -0.680442
vn -0.318751 0.668557 -0.671885
vn -0.508878 0.663997 -0.547861
vn -0.232084 0.776376 -0.585983
vn -0.436196 0.784162 -0.441387
vn 0.005079 0.772962 -0.634432
vn -0.000000 0.407593 -0.913164
vn -0.324216 0.416931 -0.849148
vn -0.640104 0.424894 -0.640104
vn 0.232258 0.778725 -0.582789
vn 0.430631 0.786353 -0.442951
vn 0.640104 0.424893 -0.640104
vn 0.324216 0.416931 -0.849148
vn 0.311070 -0.361767 -0.878840
vn -0.000000 -0.392085 -0.919929
vn 0.667176 -0.331287 -0.667176
vn 0.425418 -0.798774 -0.425418
vn 0.162371 -0.882676 -0.441042
vn -0.000000 -0.905000 -0.425411
vn -0.311070 -0.361767 -0.878840
vn -0.667177 -0.331287 -0.667176
vn -0.162371 -0.882676 -0.441043
vn -0.425418 -0.798774 -0.425418
vn -0.000003 -1.000000 -0.000003
vn -0.441043 -0.882676 -0.162371
vn -0.000000 -1.000000 -0.000003
vn 0.000000 -1.000000 -0.000000
vn -0.000003 -1.000000 -0.000000
vn -0.425411 -0.905001 0.000000
vn 0.000003 -1.000000 -0.000003
vn 0.441043 -0.882676 -0.162371
vn 0.425411 -0.905000 -0.000000
vn 0.000003 -1.000000 0.000000
vn 0.000003 -1.000000 0.000003
vn 0.000000 -1.000000 0.000003
vn 0.441043 -0.882676 0.162371
vn -0.000003 -1.000000 0.000003
vn -0.441043 -0.882676 0.162371
vn 0.878840 -0.361767 0.311069
vn 0.919929 -0.392085 0.000000
vn 0.913164 0.407593 -0.000000
vn 0.849148 0.416931 0.324216
vn 0.878840 -0.361767 -0.311069
vn 0.849148 0.416931 -0.324216
vn 0.589752 0.771455 -0.238851
vn 0.647913 0.761715 -0.000000
vn 0.589752 0.771455 0.238851
vn -0.878840 -0.361767 -0.311069
vn -0.919929 -0.392085 -0.000000
vn -0.913164 0.407593 0.000000
vn -0.849148 0.416931 -0.324216
vn -0.878840 -0.361767 0.311069
vn -0.849148 0.416931 0.324216
vn -0.589752 0.771455 0.238851
vn -0.647913 0.761715 0.000000
vn -0.589752 0.771455 -0.238851
vn -0.120011 0.285902 0.950714
vn -0.422615 0.678139 0.601268
vn -0.541475 0.840717 0.000001
vn 0.156202 -0.572533 0.804865
vn 0.189335 -0.981913 0.000019
vn 0.185685 -0.509248 -0.840350
vn -0.126718 0.290444 -0.948464
vn -0.422615 0.678139 -0.601268
vn -0.042273 0.810762 0.583848
vn 0.090976 0.319115 0.943339
vn 0.265707 0.312819 0.911891
vn 0.390264 0.734733 0.554853
vn -0.028723 0.999587 0.000000
vn 0.427390 0.904068 -0.000000
vn 0.039403 -0.660495 0.749795
vn 0.147520 -0.638909 0.755005
vn -0.088282 -0.996096 -0.000008
vn -0.157756 -0.987478 0.000004
vn 0.075169 -0.677000 -0.732135
vn 0.062748 -0.726724 -0.684058
vn 0.111107 0.341191 -0.933404
vn 0.260115 0.283066 -0.923154
vn -0.042273 0.810762 -0.583848
vn 0.390264 0.734733 -0.554853
vn 0.904290 0.087875 0.417777
vn 0.146047 -0.099123 0.984299
vn 0.004576 -0.162292 0.986732
vn 0.795251 -0.301248 0.526142
vn 0.997577 0.069564 0.000000
vn 0.949006 -0.315257 0.000000
vn -0.662949 -0.324728 0.674574
vn -0.769779 0.149196 0.620630
vn -0.982612 -0.185671 0.000002
vn -0.963932 0.266148 0.000003
vn -0.662949 -0.324728 -0.674574
vn -0.769778 0.149196 -0.620630
vn 0.146047 -0.099123 -0.984299
vn 0.004577 -0.162293 -0.986732
vn 0.904290 0.087874 -0.417777
vn 0.795251 -0.301248 -0.526142
vn 0.548490 0.595424 0.587052
vn 0.268135 0.185767 0.945301
vn 0.211078 0.039038 0.976689
vn 0.682940 0.479476 0.551086
vn 0.659987 0.751277 -0.000001
vn 0.809879 0.586597 -0.000000
vn 0.548490 0.595423 -0.587052
vn 0.682940 0.479476 -0.551086
vn 0.247521 0.175253 -0.952901
vn 0.211078 0.039039 -0.976689
vn -0.236881 -0.771182 -0.590902
vn -0.439989 -0.798901 -0.410081
vn -0.464823 -0.885404 -0.000000
vn -0.566552 -0.824026 0.000000
vn -0.149444 -0.802634 0.577447
vn -0.439989 -0.798902 0.410080
s 1
g ChocolateChip
usemtl initialShadingGroup
f 1/1/1 74/88/2 26/40/3 81/97/4
f 74/88/2 15/21/5 50/64/6 26/40/3
f 26/40/3 50/64/6 21/15/7 53/67/8
f 81/97/4 26/40/3 53/67/8 18/25/9
f 15/21/5 75/90/10 27/41/11 50/64/6
f 75/90/10 2/3/12 76/92/13 27/41/11
f 27/41/11 76/92/13 16/23/14 51/65/15
f 50/64/6 27/41/11 51/65/15 21/15/7
f 21/15/7 51/65/15 28/42/16 52/66/17
f 51/65/15 16/23/14 77/93/18 28/42/16
f 28/42/16 77/93/18 4/6/19 78/94/20
f 52/66/17 28/42/16 78/94/20 17/24/21
f 18/25/9 53/67/8 29/43/22 80/96/23
f 53/67/8 21/15/7 52/66/17 29/43/22
f 29/43/22 52/66/17 17/24/21 79/95/24
f 80/96/23 29/43/22 79/95/24 3/5/25
f 3/5/25 79/95/24 30/44/26 87/106/27
f 79/95/24 17/24/21 54/68/28 30/44/26
f 115/142/29 114/143/30 116/16/31 117/144/32
f 87/106/27 30/44/26 57/71/33 9/29/34
f 17/24/21 78/94/20 31/45/35 54/68/28
f 78/94/20 4/6/19 82/98/36 31/45/35
f 31/45/35 82/98/36 19/26/37 55/69/38
f 114/143/30 118/145/39 119/146/40 116/16/31
f 116/16/31 119/146/40 120/147/41 121/148/42
f 55/69/38 19/26/37 83/100/43 32/46/44
f 32/46/44 83/100/43 6/9/45 84/102/46
f 56/70/47 32/46/44 84/102/46 20/28/48
f 9/29/34 57/71/33 33/47/49 86/104/50
f 117/144/32 116/16/31 121/148/42 122/149/51
f 33/47/49 56/70/47 20/28/48 85/103/52
f 86/104/50 33/47/49 85/103/52 5/7/53
f 5/7/53 85/103/52 34/48/54 93/116/55
f 85/103/52 20/28/48 58/72/56 34/48/54
f 34/48/54 58/72/56 22/17/57 61/75/58
f 93/116/55 34/48/54 61/75/58 12/34/59
f 20/28/48 84/102/46 35/49/60 58/72/56
f 84/102/46 6/9/45 88/108/61 35/49/60
f 35/49/60 88/108/61 10/31/62 59/73/63
f 58/72/56 35/49/60 59/73/63 22/17/57
f 22/17/57 59/73/63 36/50/64 60/74/65
f 59/73/63 10/31/62 89/110/66 36/50/64
f 36/50/64 89/110/66 8/13/67 90/112/68
f 60/74/65 36/50/64 90/112/68 11/33/69
f 12/34/59 61/75/58 37/51/70 92/114/71
f 61/75/58 22/17/57 60/74/65 37/51/70
f 37/51/70 60/74/65 11/33/69 91/113/72
f 92/114/71 37/51/70 91/113/72 7/11/73
f 7/11/73 91/113/72 38/52/74 97/124/75
f 91/113/72 11/33/69 62/76/76 38/52/74
f 38/52/74 62/76/76 23/18/77 65/79/78
f 97/124/75 38/52/74 65/79/78 14/38/79
f 11/33/69 90/112/68 39/53/80 62/76/76
f 90/112/68 8/13/67 94/118/81 39/53/80
f 39/53/80 94/118/81 13/36/82 63/77/83
f 62/76/76 39/53/80 63/77/83 23/18/77
f 23/18/77 63/77/83 40/54/84 64/78/85
f 63/77/83 13/36/82 95/120/86 40/54/84
f 40/54/84 95/120/86 2/4/12 75/91/10
f 64/78/85 40/54/84 75/91/10 15/22/5
f 14/38/79 65/79/78 41/55/87 96/122/88
f 65/79/78 23/18/77 64/78/85 41/55/87
f 41/55/87 64/78/85 15/22/5 74/89/2
f 96/122/88 41/55/87 74/89/2 1/2/1
f 2/3/12 95/121/86 42/56/89 76/92/13
f 95/121/86 13/37/82 66/80/90 42/56/89
f 42/56/89 66/80/90 24/19/91 69/83/92
f 76/92/13 42/56/89 69/83/92 16/23/14
f 13/37/82 94/119/81 43/57/93 66/80/90
f 94/119/81 8/14/67 89/111/66 43/57/93
f 43/57/93 89/111/66 10/32/62 67/81/94
f 66/80/90 43/57/93 67/81/94 24/19/91
f 24/19/91 67/81/94 44/58/95 68/82/96
f 67/81/94 10/32/62 88/109/61 44/58/95
f 44/58/95 88/109/61 6/10/45 83/101/43
f 68/82/96 44/58/95 83/101/43 19/27/37
f 16/23/14 69/83/92 45/59/97 77/93/18
f 69/83/92 24/19/91 68/82/96 45/59/97
f 45/59/97 68/82/96 19/27/37 82/99/36
f 77/93/18 45/59/97 82/99/36 4/6/19
f 7/12/73 97/125/75 46/60/98 92/115/71
f 97/125/75 14/39/79 70/84/99 46/60/98
f 46/60/98 70/84/99 25/20/100 73/87/101
f 92/115/71 46/60/98 73/87/101 12/35/59
f 14/39/79 96/123/88 47/61/102 70/84/99
f 96/123/88 1/1/1 81/97/4 47/61/102
f 47/61/102 81/97/4 18/25/9 71/85/103
f 70/84/99 47/61/102 71/85/103 25/20/100
f 25/20/100 71/85/103 48/62/104 72/86/105
f 71/85/103 18/25/9 80/96/23 48/62/104
f 48/62/104 80/96/23 3/5/25 87/107/27
f 72/86/105 48/62/104 87/107/27 9/30/34
f 12/35/59 73/87/101 49/63/106 93/117/55
f 73/87/101 25/20/100 72/86/105 49/63/106
f 49/63/106 72/86/105 9/30/34 86/105/50
f 93/117/55 49/63/106 86/105/50 5/8/53
f 30/44/26 54/68/28 123/150/107 124/151/108
f 57/71/33 30/44/26 124/151/108 125/152/109
f 54/68/28 31/45/35 130/157/110 123/150/107
f 31/45/35 55/69/38 129/156/111 130/157/110
f 55/69/38 32/46/44 128/155/112 129/156/111
f 32/46/44 56/70/47 127/154/113 128/155/112
f 56/70/47 33/47/49 126/153/114 127/154/113
f 33/47/49 57/71/33 125/152/109 126/153/114
f 99/126/115 98/127/116 154/181/117 147/174/118
f 100/128/119 99/126/115 147/174/118 148/175/120
f 98/127/116 101/129/121 153/180/122 154/181/117
f 101/129/121 102/130/123 152/179/124 153/180/122
f 102/130/123 103/131/125 151/178/126 152/179/124
f 103/131/125 104/132/127 150/177/128 151/178/126
f 104/132/127 105/133/129 149/176/130 150/177/128
f 105/133/129 100/128/119 148/175/120 149/176/130
f 107/134/131 106/135/132 146/173/133 139/166/134
f 108/136/135 107/134/131 139/166/134 140/167/136
f 106/135/132 109/137/137 145/172/138 146/173/133
f 109/137/137 110/138/139 144/171/140 145/172/138
f 110/138/139 111/139/141 143/170/142 144/171/140
f 111/139/141 112/140/143 142/169/144 143/170/142
f 112/140/143 113/141/145 141/168/146 142/169/144
f 113/141/145 108/136/135 140/167/136 141/168/146
f 124/151/108 123/150/107 98/127/116 99/126/115
f 125/152/109 124/151/108 99/126/115 100/128/119
f 126/153/114 125/152/109 100/128/119 105/133/129
f 127/154/113 126/153/114 105/133/129 104/132/127
f 128/155/112 127/154/113 104/132/127 103/131/125
f 129/156/111 128/155/112 103/131/125 102/130/123
f 130/157/110 129/156/111 102/130/123 101/129/121
f 123/150/107 130/157/110 101/129/121 98/127/116
f 132/159/147 131/158/148 162/189/149 155/182/150
f 133/160/151 132/159/147 155/182/150 156/183/152
f 134/161/153 133/160/151 156/183/152 157/184/154
f 135/162/155 134/161/153 157/184/154 158/185/156
f 136/163/157 135/162/155 158/185/156 159/186/158
f 137/164/159 136/163/157 159/186/158 160/187/160
f 138/165/161 137/164/159 160/187/160 161/188/162
f 131/158/148 138/165/161 161/188/162 162/189/149
f 140/167/136 139/166/134 115/142/29 117/144/32
f 141/168/146 140/167/136 117/144/32 122/149/51
f 142/169/144 141/168/146 122/149/51 121/148/42
f 143/170/142 142/169/144 121/148/42 120/147/41
f 144/171/140 143/170/142 120/147/41 119/146/40
f 145/172/138 144/171/140 119/146/40 118/145/39
f 146/173/133 145/172/138 118/145/39 114/143/30
f 139/166/134 146/173/133 114/143/30 115/142/29
f 148/175/120 147/174/118 132/159/147 133/160/151
f 149/176/130 148/175/120 133/160/151 134/161/153
f 150/177/128 149/176/130 134/161/153 135/162/155
f 151/178/126 150/177/128 135/162/155 136/163/157
f 152/179/124 151/178/126 136/163/157 137/164/159
f 153/180/122 152/179/124 137/164/159 138/165/161
f 154/181/117 153/180/122 138/165/161 131/158/148
f 147/174/118 154/181/117 131/158/148 132/159/147
f 156/183/152 155/182/150 107/134/131 108/136/135
f 157/184/154 156/183/152 108/136/135 113/141/145
f 158/185/156 157/184/154 113/141/145 112/140/143
f 159/186/158 158/185/156 112/140/143 111/139/141
f 160/187/160 159/186/158 111/139/141 110/138/139
f 161/188/162 160/187/160 110/138/139 109/137/137
f 162/189/149 161/188/162 109/137/137 106/135/132
f 155/182/150 162/189/149 106/135/132 107/134/131
