# Apple ModelIO OBJ File: Pancake
mtllib Pancake.mtl
g pCylinder29_initialShadingGroup
v 6.75951 -0.790402 -2.19631
v 5.74999 -0.790402 -4.17756
v 5.74999 0.314935 -4.17756
v 6.75951 0.314935 -2.19631
v 4.17759 -0.790402 -5.74996
v 4.17759 0.314935 -5.74996
v 2.19633 -0.790402 -6.75945
v 2.19633 0.314935 -6.75945
v 0 -0.790402 -7.1073
v 0 0.314935 -7.1073
v -2.19628 -0.790402 -6.75945
v -2.19628 0.314935 -6.75945
v -4.17753 -0.790402 -5.74996
v -4.17753 0.314935 -5.74996
v -5.74993 -0.790402 -4.17756
v -5.74993 0.314935 -4.17756
v -6.75945 -0.790402 -2.19631
v -6.75945 0.314935 -2.19631
v -7.10725 -0.790402 0
v -7.10725 0.314935 0
v -6.75945 -0.790402 2.19631
v -6.75945 0.314935 2.19631
v -5.74993 -0.790402 4.17756
v -5.74993 0.314935 4.17756
v -4.17753 -0.790402 5.74996
v -4.17753 0.314935 5.74996
v -2.19628 -0.790402 6.75945
v -2.19628 0.314935 6.75945
v 0 -0.790402 7.1073
v 0 0.314935 7.1073
v 2.19633 -0.790402 6.75945
v 2.19633 0.314935 6.75945
v 4.17759 -0.790402 5.74996
v 4.17759 0.314935 5.74996
v 5.74999 -0.790402 4.17756
v 5.74999 0.314935 4.17756
v 6.75951 -0.790402 2.19631
v 6.75951 0.314935 2.19631
v 7.1073 -0.790402 0
v 7.1073 0.314935 0
v 5.29735 -1.34296 -3.84869
v 6.22743 -1.34296 -2.02344
v 0 -1.34296 0
v 3.84877 -1.34296 -5.29735
v 2.02341 -1.34296 -6.2274
v 0 -1.34296 -6.54787
v -2.02336 -1.34296 -6.2274
v -3.84874 -1.34296 -5.29735
v -5.29732 -1.34296 -3.84869
v -6.22738 -1.34296 -2.02344
v -6.54784 -1.34296 0
v -6.22738 -1.34296 2.02344
v -5.29732 -1.34296 3.84869
v -3.84874 -1.34296 5.29735
v -2.02336 -1.34296 6.2274
v 0 -1.34296 6.54787
v 2.02341 -1.34296 6.2274
v 3.84877 -1.34296 5.29735
v 5.29735 -1.34296 3.84869
v 6.22743 -1.34296 2.02344
v 6.5479 -1.34296 0
v 6.22743 0.867496 -2.02344
v 5.29735 0.867496 -3.84869
v 0 0.867496 0
v 3.84877 0.867496 -5.29735
v 2.02341 0.867496 -6.2274
v 0 0.867496 -6.54787
v -2.02336 0.867496 -6.2274
v -3.84874 0.867496 -5.29735
v -5.29732 0.867496 -3.84869
v -6.22738 0.867496 -2.02344
v -6.54784 0.867496 0
v -6.22738 0.867496 2.02344
v -5.29732 0.867496 3.84869
v -3.84874 0.867496 5.29735
v -2.02336 0.867496 6.2274
v 0 0.867496 6.54787
v 2.02341 0.867496 6.2274
v 3.84877 0.867496 5.29735
v 5.29735 0.867496 3.84869
v 6.22743 0.867496 2.02344
v 6.5479 0.867496 0
v 6.60361 -1.18112 -2.14571
v 5.61738 -1.18112 -4.08126
v 4.08128 -1.18112 -5.61738
v 2.14566 -1.18112 -6.60367
v 0 -1.18112 -6.94344
v -2.14566 -1.18112 -6.60367
v -4.08126 -1.18112 -5.61738
v -5.61732 -1.18112 -4.08126
v -6.60356 -1.18112 -2.14571
v -6.94344 -1.18112 0
v -6.60356 -1.18112 2.14566
v -5.61732 -1.18112 4.08126
v -4.08126 -1.18112 5.61738
v -2.14566 -1.18112 6.60361
v 0 -1.18112 6.94344
v 2.14566 -1.18112 6.60361
v 4.08128 -1.18112 5.61738
v 5.61738 -1.18112 4.08126
v 6.60361 -1.18112 2.14566
v 6.94347 -1.18112 0
v 6.60361 0.70565 -2.14571
v 6.94347 0.70565 0
v 5.61738 0.70565 -4.08126
v 4.08128 0.70565 -5.61738
v 2.14566 0.70565 -6.60367
v 0 0.70565 -6.94344
v -2.14566 0.70565 -6.60367
v -4.08126 0.70565 -5.61738
v -5.61732 0.70565 -4.08126
v -6.60356 0.70565 -2.14571
v -6.94344 0.70565 0
v -6.60356 0.70565 2.14566
v -5.61732 0.70565 4.08126
v -4.08126 0.70565 5.61738
v -2.14566 0.70565 6.60361
v 0 0.70565 6.94344
v 2.14566 0.70565 6.60361
v 4.08128 0.70565 5.61738
v 5.61738 0.70565 4.08126
v 6.60361 0.70565 2.14566
vn 0.945814 -0.104892 -0.3073
vn 0.804551 -0.10489 -0.584547
vn 0.804551 0.10489 -0.584547
vn 0.945814 0.104891 -0.3073
vn 0.584546 -0.104878 -0.804554
vn 0.584546 0.104878 -0.804554
vn 0.307309 -0.104869 -0.945814
vn 0.307309 0.104869 -0.945814
vn 0 -0.104863 -0.994487
vn 0 0.104863 -0.994487
vn -0.30731 -0.104862 -0.945814
vn -0.30731 0.104862 -0.945814
vn -0.584546 -0.104869 -0.804555
vn -0.584546 0.104869 -0.804555
vn -0.804552 -0.104887 -0.584547
vn -0.804552 0.104887 -0.584547
vn -0.945814 -0.104887 -0.307301
vn -0.945814 0.104887 -0.307301
vn -0.994485 -0.104881 -0
vn -0.994485 0.104881 -0
vn -0.945813 -0.104892 0.307303
vn -0.945813 0.104892 0.307303
vn -0.804552 -0.104891 0.584546
vn -0.804552 0.104891 0.584546
vn -0.584545 -0.104876 0.804555
vn -0.584545 0.104876 0.804555
vn -0.307308 -0.104877 0.945813
vn -0.307308 0.104877 0.945813
vn 0 -0.104881 0.994485
vn 0 0.104881 0.994485
vn 0.307308 -0.104884 0.945812
vn 0.307308 0.104884 0.945812
vn 0.584545 -0.104885 0.804554
vn 0.584545 0.104885 0.804554
vn 0.804551 -0.104894 0.584546
vn 0.804551 0.104894 0.584546
vn 0.945813 -0.104896 0.307303
vn 0.945813 0.104896 0.307303
vn 0.994484 -0.104889 -0
vn 0.994484 0.104889 -0
vn 0.043385 -0.998561 -0.031521
vn 0.051005 -0.998561 -0.016572
vn 0 -1 -0
vn 0.031523 -0.998561 -0.043386
vn 0.016572 -0.998561 -0.051004
vn -0 -0.998561 -0.053629
vn -0.016571 -0.998561 -0.051003
vn -0.031523 -0.998561 -0.043386
vn -0.043386 -0.998561 -0.031521
vn -0.051005 -0.998561 -0.016572
vn -0.053629 -0.998561 0
vn -0.051005 -0.998561 0.016573
vn -0.043386 -0.998561 0.031521
vn -0.031523 -0.998561 0.043386
vn -0.016571 -0.998561 0.051004
vn -0 -0.998561 0.053629
vn 0.016572 -0.998561 0.051004
vn 0.031523 -0.998561 0.043386
vn 0.043385 -0.998561 0.031521
vn 0.051005 -0.998561 0.016573
vn 0.053628 -0.998561 0
vn 0.051005 0.998561 -0.016572
vn 0.043385 0.998561 -0.031521
vn 0 1 0
vn 0.031523 0.998561 -0.043386
vn 0.016572 0.998561 -0.051004
vn -0 0.998561 -0.053629
vn -0.016571 0.998561 -0.051003
vn -0.031523 0.998561 -0.043386
vn -0.043386 0.998561 -0.031521
vn -0.051005 0.998561 -0.016572
vn -0.053629 0.998561 0
vn -0.051005 0.998561 0.016573
vn -0.043386 0.998561 0.031521
vn -0.031523 0.998561 0.043386
vn -0.016571 0.998561 0.051004
vn -0 0.998561 0.053629
vn 0.016572 0.998561 0.051004
vn 0.031523 0.998561 0.043386
vn 0.043385 0.998561 0.031521
vn 0.051005 0.998561 0.016573
vn 0.053628 0.998561 0
vn 0.877029 -0.386796 -0.284972
vn 0.746042 -0.386791 -0.542046
vn 0.36014 -0.925529 -0.117023
vn 0.306339 -0.925536 -0.222576
vn 0.542055 -0.386749 -0.746057
vn 0.222569 -0.925539 -0.306334
vn 0.284958 -0.386719 -0.877068
vn 0.117008 -0.925539 -0.360121
vn -0 -0.386705 -0.922204
vn 0 -0.925538 -0.378655
vn -0.284974 -0.386696 -0.877073
vn -0.117011 -0.925542 -0.360113
vn -0.542069 -0.386721 -0.746062
vn -0.222569 -0.92554 -0.306332
vn -0.746047 -0.386781 -0.542047
vn -0.306347 -0.925532 -0.222581
vn -0.877034 -0.386781 -0.284977
vn -0.36014 -0.925529 -0.117023
vn -0.922183 -0.386754 0
vn -0.378678 -0.925528 -0
vn -0.87703 -0.386799 0.284964
vn -0.360149 -0.925526 0.11702
vn -0.746044 -0.386794 0.542041
vn -0.306352 -0.92553 0.222583
vn -0.542059 -0.386745 0.746056
vn -0.222573 -0.925536 0.306341
vn -0.284971 -0.386747 0.877051
vn -0.117019 -0.925533 0.360133
vn 0 -0.386759 0.922181
vn 0 -0.925529 0.378677
vn 0.284955 -0.38677 0.877046
vn 0.117016 -0.92553 0.360141
vn 0.542045 -0.386774 0.746052
vn 0.222574 -0.925535 0.306342
vn 0.74604 -0.386804 0.54204
vn 0.306344 -0.925534 0.222578
vn 0.877026 -0.386812 0.28496
vn 0.360149 -0.925526 0.117021
vn 0.922171 -0.386781 0
vn 0.378689 -0.925524 -0
vn 0.877029 0.386795 -0.284972
vn 0.922171 0.386782 0
vn 0.36014 0.925529 -0.117023
vn 0.378689 0.925524 -0
vn 0.306339 0.925536 -0.222576
vn 0.746042 0.386791 -0.542046
vn 0.222569 0.925539 -0.306334
vn 0.542055 0.386749 -0.746057
vn 0.117008 0.925539 -0.360121
vn 0.284958 0.386719 -0.877068
vn 0 0.925538 -0.378655
vn 0 0.386704 -0.922204
vn -0.117011 0.925542 -0.360113
vn -0.284974 0.386696 -0.877073
vn -0.222569 0.92554 -0.306332
vn -0.542069 0.386721 -0.746062
vn -0.306347 0.925532 -0.222581
vn -0.746047 0.386781 -0.542047
vn -0.36014 0.925529 -0.117023
vn -0.877034 0.386781 -0.284977
vn -0.378678 0.925528 -0
vn -0.922183 0.386754 0
vn -0.360149 0.925526 0.11702
vn -0.87703 0.386799 0.284964
vn -0.306352 0.92553 0.222583
vn -0.746044 0.386794 0.542041
vn -0.222573 0.925536 0.306341
vn -0.542059 0.386746 0.746056
vn -0.117019 0.925533 0.360133
vn -0.284971 0.386747 0.877051
vn 0 0.925529 0.378677
vn 0 0.386759 0.922181
vn 0.117016 0.92553 0.360141
vn 0.284955 0.38677 0.877046
vn 0.222574 0.925535 0.306342
vn 0.542045 0.386774 0.746052
vn 0.306344 0.925534 0.222578
vn 0.74604 0.386804 0.54204
vn 0.360149 0.925526 0.11702
vn 0.877026 0.386812 0.28496
vt 0.364291 0.628808
vt 0.364291 0.55802
vt 0.403784 0.55802
vt 0.403784 0.628808
vt 0.364291 0.501839
vt 0.403784 0.501839
vt 0.257652 0.501839
vt 0.257652 0.572628
vt 0.218159 0.572628
vt 0.218159 0.501839
vt 0.257652 0.651101
vt 0.218159 0.651101
vt 0.257652 0.729573
vt 0.218159 0.729573
vt 0.257652 0.800361
vt 0.218159 0.800361
vt 0.291225 0.912722
vt 0.291225 0.856542
vt 0.330718 0.856542
vt 0.330718 0.912722
vt 0.291225 0.785753
vt 0.330718 0.785753
vt 0.291225 0.707281
vt 0.330718 0.707281
vt 0.291225 0.628808
vt 0.330718 0.628808
vt 0.291225 0.558019
vt 0.330718 0.558019
vt 0.291225 0.501839
vt 0.330718 0.501839
vt 0.145093 0.800361
vt 0.145093 0.729572
vt 0.184586 0.729572
vt 0.184586 0.800361
vt 0.145093 0.651101
vt 0.184586 0.651101
vt 0.145093 0.572627
vt 0.184586 0.572627
vt 0.145093 0.501839
vt 0.184586 0.501839
vt 0.364291 0.912723
vt 0.364291 0.856542
vt 0.403784 0.856542
vt 0.403784 0.912723
vt 0.364291 0.785753
vt 0.403784 0.785753
vt 0.364291 0.707281
vt 0.403784 0.707281
vt 0.112409 0.060807
vt 0.177623 0.027575
vt 0.249919 0.250077
vt 0.060649 0.112563
vt 0.027419 0.177782
vt 0.015969 0.250077
vt 0.027419 0.32237
vt 0.060649 0.38759
vt 0.112409 0.439346
vt 0.177623 0.472577
vt 0.249919 0.484027
vt 0.322215 0.472577
vt 0.38743 0.439346
vt 0.43919 0.38759
vt 0.47242 0.32237
vt 0.48387 0.250077
vt 0.47242 0.177782
vt 0.43919 0.112563
vt 0.38743 0.060807
vt 0.322215 0.027575
vt 0.249919 0.016125
vt 0.743777 0.527422
vt 0.808992 0.560653
vt 0.671481 0.749924
vt 0.860751 0.61241
vt 0.893981 0.677629
vt 0.905432 0.749924
vt 0.893981 0.822217
vt 0.860751 0.887437
vt 0.808992 0.939193
vt 0.743777 0.972423
vt 0.671481 0.983873
vt 0.599185 0.972423
vt 0.53397 0.939193
vt 0.48221 0.887437
vt 0.44898 0.822217
vt 0.43753 0.749924
vt 0.44898 0.677629
vt 0.48221 0.61241
vt 0.53397 0.560653
vt 0.599185 0.527422
vt 0.671481 0.515972
vt 0.350331 0.630616
vt 0.350331 0.561461
vt 0.173255 0.014135
vt 0.104099 0.049372
vt 0.350331 0.506576
vt 0.049215 0.104256
vt 0.271612 0.50528
vt 0.271612 0.574439
vt 0.013975 0.173414
vt 0.271612 0.651101
vt 0.001835 0.250077
vt 0.271612 0.727764
vt 0.013975 0.32674
vt 0.271612 0.796921
vt 0.049215 0.395897
vt 0.277265 0.907985
vt 0.277265 0.853101
vt 0.104099 0.45078
vt 0.277265 0.783945
vt 0.173255 0.486017
vt 0.277265 0.707281
vt 0.249919 0.498161
vt 0.277265 0.630618
vt 0.326582 0.486017
vt 0.277265 0.56146
vt 0.39574 0.45078
vt 0.277265 0.506576
vt 0.450624 0.395897
vt 0.131133 0.796921
vt 0.131133 0.727764
vt 0.485862 0.32674
vt 0.131133 0.651101
vt 0.498003 0.250077
vt 0.131133 0.574438
vt 0.485862 0.173414
vt 0.131133 0.50528
vt 0.450624 0.104256
vt 0.350331 0.907986
vt 0.350331 0.853101
vt 0.39574 0.049372
vt 0.350331 0.783944
vt 0.326582 0.014135
vt 0.350331 0.707281
vt 0.249919 0.001992
vt 0.417744 0.630616
vt 0.417744 0.707281
vt 0.748146 0.513982
vt 0.671481 0.501839
vt 0.817301 0.549219
vt 0.417744 0.561461
vt 0.872186 0.604103
vt 0.417744 0.506576
vt 0.907425 0.673261
vt 0.204199 0.50528
vt 0.204199 0.574439
vt 0.919565 0.749924
vt 0.204199 0.651101
vt 0.907425 0.826587
vt 0.204199 0.727764
vt 0.872186 0.895744
vt 0.204199 0.796921
vt 0.817301 0.950627
vt 0.344678 0.907985
vt 0.344678 0.853101
vt 0.748146 0.985864
vt 0.344678 0.783945
vt 0.671481 0.998008
vt 0.344678 0.707281
vt 0.594818 0.985864
vt 0.344678 0.630618
vt 0.525661 0.950627
vt 0.344678 0.56146
vt 0.470776 0.895744
vt 0.344678 0.506576
vt 0.435539 0.826587
vt 0.198546 0.796921
vt 0.198546 0.727764
vt 0.423397 0.749924
vt 0.198546 0.651101
vt 0.435539 0.673261
vt 0.198546 0.574438
vt 0.470776 0.604103
vt 0.198546 0.50528
vt 0.525661 0.549219
vt 0.417744 0.907986
vt 0.417744 0.853101
vt 0.594818 0.513982
vt 0.417744 0.783944
usemtl initialShadingGroup
f 1/1/1 2/2/2 3/3/3
f 1/1/1 3/3/3 4/4/4
f 2/2/2 5/5/5 6/6/6
f 2/2/2 6/6/6 3/3/3
f 5/7/5 7/8/7 8/9/8
f 5/7/5 8/9/8 6/10/6
f 7/8/7 9/11/9 10/12/10
f 7/8/7 10/12/10 8/9/8
f 9/11/9 11/13/11 12/14/12
f 9/11/9 12/14/12 10/12/10
f 11/13/11 13/15/13 14/16/14
f 11/13/11 14/16/14 12/14/12
f 13/17/13 15/18/15 16/19/16
f 13/17/13 16/19/16 14/20/14
f 15/18/15 17/21/17 18/22/18
f 15/18/15 18/22/18 16/19/16
f 17/21/17 19/23/19 20/24/20
f 17/21/17 20/24/20 18/22/18
f 19/23/19 21/25/21 22/26/22
f 19/23/19 22/26/22 20/24/20
f 21/25/21 23/27/23 24/28/24
f 21/25/21 24/28/24 22/26/22
f 23/27/23 25/29/25 26/30/26
f 23/27/23 26/30/26 24/28/24
f 25/31/25 27/32/27 28/33/28
f 25/31/25 28/33/28 26/34/26
f 27/32/27 29/35/29 30/36/30
f 27/32/27 30/36/30 28/33/28
f 29/35/29 31/37/31 32/38/32
f 29/35/29 32/38/32 30/36/30
f 31/37/31 33/39/33 34/40/34
f 31/37/31 34/40/34 32/38/32
f 33/41/33 35/42/35 36/43/36
f 33/41/33 36/43/36 34/44/34
f 35/42/35 37/45/37 38/46/38
f 35/42/35 38/46/38 36/43/36
f 37/45/37 39/47/39 40/48/40
f 37/45/37 40/48/40 38/46/38
f 39/47/39 1/1/1 4/4/4
f 39/47/39 4/4/4 40/48/40
f 41/49/41 42/50/42 43/51/43
f 44/52/44 41/49/41 43/51/43
f 45/53/45 44/52/44 43/51/43
f 46/54/46 45/53/45 43/51/43
f 47/55/47 46/54/46 43/51/43
f 48/56/48 47/55/47 43/51/43
f 49/57/49 48/56/48 43/51/43
f 50/58/50 49/57/49 43/51/43
f 51/59/51 50/58/50 43/51/43
f 52/60/52 51/59/51 43/51/43
f 53/61/53 52/60/52 43/51/43
f 54/62/54 53/61/53 43/51/43
f 55/63/55 54/62/54 43/51/43
f 56/64/56 55/63/55 43/51/43
f 57/65/57 56/64/56 43/51/43
f 58/66/58 57/65/57 43/51/43
f 59/67/59 58/66/58 43/51/43
f 60/68/60 59/67/59 43/51/43
f 61/69/61 60/68/60 43/51/43
f 42/50/42 61/69/61 43/51/43
f 62/70/62 63/71/63 64/72/64
f 63/71/63 65/73/65 64/72/64
f 65/73/65 66/74/66 64/72/64
f 66/74/66 67/75/67 64/72/64
f 67/75/67 68/76/68 64/72/64
f 68/76/68 69/77/69 64/72/64
f 69/77/69 70/78/70 64/72/64
f 70/78/70 71/79/71 64/72/64
f 71/79/71 72/80/72 64/72/64
f 72/80/72 73/81/73 64/72/64
f 73/81/73 74/82/74 64/72/64
f 74/82/74 75/83/75 64/72/64
f 75/83/75 76/84/76 64/72/64
f 76/84/76 77/85/77 64/72/64
f 77/85/77 78/86/78 64/72/64
f 78/86/78 79/87/79 64/72/64
f 79/87/79 80/88/80 64/72/64
f 80/88/80 81/89/81 64/72/64
f 81/89/81 82/90/82 64/72/64
f 82/90/82 62/70/62 64/72/64
f 1/1/1 83/91/83 2/2/2
f 83/91/83 84/92/84 2/2/2
f 83/93/85 42/50/42 84/94/86
f 42/50/42 41/49/41 84/94/86
f 2/2/2 84/92/84 85/95/87
f 2/2/2 85/95/87 5/5/5
f 84/94/86 41/49/41 44/52/44
f 84/94/86 44/52/44 85/96/88
f 5/7/5 85/97/87 86/98/89
f 5/7/5 86/98/89 7/8/7
f 85/96/88 44/52/44 86/99/90
f 44/52/44 45/53/45 86/99/90
f 7/8/7 86/98/89 9/11/9
f 86/98/89 87/100/91 9/11/9
f 86/99/90 45/53/45 46/54/46
f 86/99/90 46/54/46 87/101/92
f 9/11/9 87/100/91 88/102/93
f 9/11/9 88/102/93 11/13/11
f 87/101/92 46/54/46 88/103/94
f 46/54/46 47/55/47 88/103/94
f 11/13/11 88/102/93 13/15/13
f 88/102/93 89/104/95 13/15/13
f 88/103/94 47/55/47 48/56/48
f 88/103/94 48/56/48 89/105/96
f 13/17/13 89/106/95 15/18/15
f 89/106/95 90/107/97 15/18/15
f 89/105/96 48/56/48 90/108/98
f 48/56/48 49/57/49 90/108/98
f 15/18/15 90/107/97 91/109/99
f 15/18/15 91/109/99 17/21/17
f 90/108/98 49/57/49 50/58/50
f 90/108/98 50/58/50 91/110/100
f 17/21/17 91/109/99 92/111/101
f 17/21/17 92/111/101 19/23/19
f 91/110/100 50/58/50 92/112/102
f 50/58/50 51/59/51 92/112/102
f 19/23/19 92/111/101 21/25/21
f 92/111/101 93/113/103 21/25/21
f 92/112/102 51/59/51 52/60/52
f 92/112/102 52/60/52 93/114/104
f 21/25/21 93/113/103 94/115/105
f 21/25/21 94/115/105 23/27/23
f 93/114/104 52/60/52 94/116/106
f 52/60/52 53/61/53 94/116/106
f 23/27/23 94/115/105 95/117/107
f 23/27/23 95/117/107 25/29/25
f 94/116/106 53/61/53 54/62/54
f 94/116/106 54/62/54 95/118/108
f 25/31/25 95/119/107 96/120/109
f 25/31/25 96/120/109 27/32/27
f 95/118/108 54/62/54 96/121/110
f 54/62/54 55/63/55 96/121/110
f 27/32/27 96/120/109 29/35/29
f 96/120/109 97/122/111 29/35/29
f 96/121/110 55/63/55 56/64/56
f 96/121/110 56/64/56 97/123/112
f 29/35/29 97/122/111 31/37/31
f 97/122/111 98/124/113 31/37/31
f 97/123/112 56/64/56 98/125/114
f 56/64/56 57/65/57 98/125/114
f 31/37/31 98/124/113 99/126/115
f 31/37/31 99/126/115 33/39/33
f 98/125/114 57/65/57 99/127/116
f 57/65/57 58/66/58 99/127/116
f 33/41/33 99/128/115 35/42/35
f 99/128/115 100/129/117 35/42/35
f 99/127/116 58/66/58 100/130/118
f 58/66/58 59/67/59 100/130/118
f 35/42/35 100/129/117 37/45/37
f 100/129/117 101/131/119 37/45/37
f 100/130/118 59/67/59 60/68/60
f 100/130/118 60/68/60 101/132/120
f 37/45/37 101/131/119 102/133/121
f 37/45/37 102/133/121 39/47/39
f 101/132/120 60/68/60 102/134/122
f 60/68/60 61/69/61 102/134/122
f 42/50/42 83/93/85 102/134/122
f 42/50/42 102/134/122 61/69/61
f 83/91/83 1/1/1 102/133/121
f 1/1/1 39/47/39 102/133/121
f 4/4/4 103/135/123 104/136/124
f 4/4/4 104/136/124 40/48/40
f 103/137/125 62/70/62 104/138/126
f 62/70/62 82/90/82 104/138/126
f 62/70/62 103/137/125 105/139/127
f 62/70/62 105/139/127 63/71/63
f 103/135/123 4/4/4 3/3/3
f 103/135/123 3/3/3 105/140/128
f 63/71/63 105/139/127 65/73/65
f 105/139/127 106/141/129 65/73/65
f 105/140/128 3/3/3 106/142/130
f 3/3/3 6/6/6 106/142/130
f 65/73/65 106/141/129 107/143/131
f 65/73/65 107/143/131 66/74/66
f 106/144/130 6/10/6 107/145/132
f 6/10/6 8/9/8 107/145/132
f 66/74/66 107/143/131 67/75/67
f 107/143/131 108/146/133 67/75/67
f 107/145/132 8/9/8 10/12/10
f 107/145/132 10/12/10 108/147/134
f 67/75/67 108/146/133 109/148/135
f 67/75/67 109/148/135 68/76/68
f 108/147/134 10/12/10 109/149/136
f 10/12/10 12/14/12 109/149/136
f 68/76/68 109/148/135 69/77/69
f 109/148/135 110/150/137 69/77/69
f 109/149/136 12/14/12 14/16/14
f 109/149/136 14/16/14 110/151/138
f 69/77/69 110/150/137 111/152/139
f 69/77/69 111/152/139 70/78/70
f 110/153/138 14/20/14 16/19/16
f 110/153/138 16/19/16 111/154/140
f 70/78/70 111/152/139 71/79/71
f 111/152/139 112/155/141 71/79/71
f 111/154/140 16/19/16 112/156/142
f 16/19/16 18/22/18 112/156/142
f 71/79/71 112/155/141 113/157/143
f 71/79/71 113/157/143 72/80/72
f 112/156/142 18/22/18 113/158/144
f 18/22/18 20/24/20 113/158/144
f 72/80/72 113/157/143 73/81/73
f 113/157/143 114/159/145 73/81/73
f 113/158/144 20/24/20 22/26/22
f 113/158/144 22/26/22 114/160/146
f 73/81/73 114/159/145 115/161/147
f 73/81/73 115/161/147 74/82/74
f 114/160/146 22/26/22 115/162/148
f 22/26/22 24/28/24 115/162/148
f 74/82/74 115/161/147 75/83/75
f 115/161/147 116/163/149 75/83/75
f 115/162/148 24/28/24 116/164/150
f 24/28/24 26/30/26 116/164/150
f 75/83/75 116/163/149 117/165/151
f 75/83/75 117/165/151 76/84/76
f 116/166/150 26/34/26 117/167/152
f 26/34/26 28/33/28 117/167/152
f 76/84/76 117/165/151 77/85/77
f 117/165/151 118/168/153 77/85/77
f 117/167/152 28/33/28 30/36/30
f 117/167/152 30/36/30 118/169/154
f 77/85/77 118/168/153 119/170/155
f 77/85/77 119/170/155 78/86/78
f 118/169/154 30/36/30 32/38/32
f 118/169/154 32/38/32 119/171/156
f 78/86/78 119/170/155 120/172/157
f 78/86/78 120/172/157 79/87/79
f 119/171/156 32/38/32 120/173/158
f 32/38/32 34/40/34 120/173/158
f 79/87/79 120/172/157 121/174/159
f 79/87/79 121/174/159 80/88/80
f 120/175/158 34/44/34 36/43/36
f 120/175/158 36/43/36 121/176/160
f 80/88/80 121/174/159 81/89/81
f 121/174/159 122/177/161 81/89/81
f 121/176/160 36/43/36 38/46/38
f 121/176/160 38/46/38 122/178/162
f 81/89/81 122/177/161 104/138/126
f 81/89/81 104/138/126 82/90/82
f 122/178/162 38/46/38 104/136/124
f 38/46/38 40/48/40 104/136/124
s off
