# This file uses centimeters as units for non-parametric coordinates.

mtllib OPENWINDOWOBJ.mtl
g default
v -1.583916 0.769885 0.000000
v 1.583916 0.769885 0.000000
v -0.000000 2.269885 0.000000
v 0.000000 0.269885 0.000000
v 1.583915 1.769885 0.000000
v -1.583916 1.769885 0.000000
v -0.000000 1.269885 0.000000
v -1.828948 1.269885 0.000000
v -0.914474 0.403860 0.000000
v 0.000000 0.769885 0.000000
v -0.791958 1.519885 0.000000
v -0.791958 1.019885 0.000000
v 0.914474 0.403860 0.000000
v 1.828948 1.269885 0.000000
v 0.791958 1.519885 0.000000
v 0.791958 1.019885 0.000000
v 0.914474 2.135911 0.000000
v -0.914474 2.135911 0.000000
v -0.000000 1.769885 0.000000
v -1.187937 1.644885 0.000000
v -1.766629 1.528704 0.000000
v -1.310453 1.144885 0.000000
v -0.791958 1.269885 0.000000
v -1.249195 1.394885 0.000000
v -1.766629 1.011066 0.000000
v -1.293262 0.562778 0.000000
v -0.853216 0.711873 0.000000
v -1.279824 0.865879 0.000000
v -0.473367 0.303959 0.000000
v 0.000000 0.519885 0.000000
v -0.395979 0.894885 0.000000
v -0.426608 0.615879 0.000000
v -0.000000 1.019885 0.000000
v -0.395979 1.394885 0.000000
v -0.395979 1.144885 0.000000
v 0.473367 0.303959 0.000000
v 0.853216 0.711873 0.000000
v 0.395979 0.894885 0.000000
v 0.426608 0.615879 0.000000
v 1.293262 0.562779 0.000000
v 1.766629 1.011066 0.000000
v 1.310453 1.144885 0.000000
v 1.279824 0.865879 0.000000
v 1.766629 1.528705 0.000000
v 1.187937 1.644885 0.000000
v 0.791958 1.269885 0.000000
v 1.249195 1.394885 0.000000
v 0.395979 1.394885 0.000000
v 0.395979 1.144885 0.000000
v 1.293262 1.976992 0.000000
v 0.457237 1.952898 0.000000
v 0.395979 1.644885 0.000000
v 0.822587 1.798892 0.000000
v 0.473366 2.235811 0.000000
v -0.473367 2.235811 0.000000
v -0.457237 1.952898 0.000000
v -0.000000 2.077898 0.000000
v -1.293262 1.976992 0.000000
v -0.395979 1.644885 0.000000
v -0.822587 1.798892 0.000000
v -0.000000 1.519885 0.000000
v -0.791958 1.269885 -0.166813
v -0.791958 1.519885 -0.166813
v -1.187937 1.644885 -0.166813
v -1.249195 1.394885 -0.166813
v -1.583916 1.769885 -0.166813
v -1.766629 1.528704 -0.166813
v -1.828948 1.269885 -0.166813
v -1.310453 1.144885 -0.166813
v -0.791958 1.019885 -0.166813
v -1.766629 1.011066 -0.166813
v -1.279824 0.865879 -0.166813
v -1.583916 0.769885 -0.166813
v -1.293262 0.562778 -0.166813
v -0.914474 0.403860 -0.166813
v -0.853216 0.711873 -0.166813
v -0.473367 0.303959 -0.166813
v -0.426608 0.615879 -0.166813
v 0.000000 0.269885 -0.166813
v 0.000000 0.519885 -0.166813
v 0.000000 0.769885 -0.166813
v -0.395979 0.894885 -0.166813
v -0.000000 1.019885 -0.166813
v -0.395979 1.144885 -0.166813
v -0.000000 1.269885 -0.166813
v -0.395979 1.394885 -0.166813
v 0.395979 0.894885 -0.166813
v 0.426608 0.615879 -0.166813
v 0.473367 0.303959 -0.166813
v 0.914474 0.403860 -0.166813
v 0.853216 0.711873 -0.166813
v 0.791958 1.019885 -0.166813
v 1.293262 0.562779 -0.166813
v 1.279824 0.865879 -0.166813
v 1.583916 0.769885 -0.166813
v 1.766629 1.011066 -0.166813
v 1.828948 1.269885 -0.166813
v 1.310453 1.144885 -0.166813
v 1.766629 1.528705 -0.166813
v 1.249195 1.394885 -0.166813
v 1.583915 1.769885 -0.166813
v 1.187937 1.644885 -0.166813
v 0.791958 1.519885 -0.166813
v 0.791958 1.269885 -0.166813
v 0.395979 1.394885 -0.166813
v 0.395979 1.144885 -0.166813
v 0.395979 1.644885 -0.166813
v 0.822587 1.798892 -0.166813
v 1.293262 1.976992 -0.166813
v 0.914474 2.135911 -0.166813
v 0.457237 1.952898 -0.166813
v -0.000000 1.769885 -0.166813
v 0.473366 2.235811 -0.166813
v -0.000000 2.077898 -0.166813
v -0.000000 2.269885 -0.166813
v -0.473367 2.235811 -0.166813
v -0.914474 2.135911 -0.166813
v -0.457237 1.952898 -0.166813
v -1.293262 1.976992 -0.166813
v -0.822587 1.798892 -0.166813
v -0.395979 1.644885 -0.166813
v -0.000000 1.519885 -0.166813
vt 0.066987 0.250000
vt 0.933013 0.250000
vt 0.500000 1.000000
vt 0.500000 0.000000
vt 0.933013 0.750000
vt 0.066987 0.750000
vt 0.500000 0.500000
vt 0.000000 0.500000
vt 0.250000 0.066987
vt 0.500000 0.250000
vt 0.283494 0.625000
vt 0.283494 0.375000
vt 0.750000 0.066987
vt 1.000000 0.500000
vt 0.716506 0.625000
vt 0.716506 0.375000
vt 0.750000 0.933013
vt 0.250000 0.933013
vt 0.500000 0.750000
vt 0.175240 0.687500
vt 0.017037 0.629409
vt 0.141747 0.437500
vt 0.283494 0.500000
vt 0.158494 0.562500
vt 0.017037 0.370590
vt 0.146447 0.146447
vt 0.266747 0.220994
vt 0.150120 0.297997
vt 0.370591 0.017037
vt 0.500000 0.125000
vt 0.391747 0.312500
vt 0.383373 0.172997
vt 0.500000 0.375000
vt 0.391747 0.562500
vt 0.391747 0.437500
vt 0.629410 0.017037
vt 0.733253 0.220994
vt 0.608253 0.312500
vt 0.616627 0.172997
vt 0.853553 0.146447
vt 0.982963 0.370591
vt 0.858253 0.437500
vt 0.849880 0.297997
vt 0.982963 0.629410
vt 0.824759 0.687500
vt 0.716506 0.500000
vt 0.841506 0.562500
vt 0.608253 0.562500
vt 0.608253 0.437500
vt 0.853553 0.853553
vt 0.625000 0.841506
vt 0.608253 0.687500
vt 0.724880 0.764503
vt 0.629409 0.982963
vt 0.370590 0.982963
vt 0.375000 0.841506
vt 0.500000 0.904006
vt 0.146447 0.853553
vt 0.391747 0.687500
vt 0.275120 0.764503
vt 0.500000 0.625000
vt 0.283494 0.500000
vt 0.283494 0.625000
vt 0.175240 0.687500
vt 0.158494 0.562500
vt 0.066987 0.750000
vt 0.017037 0.629409
vt 0.000000 0.500000
vt 0.141747 0.437500
vt 0.283494 0.375000
vt 0.017037 0.370590
vt 0.150120 0.297997
vt 0.066987 0.250000
vt 0.146447 0.146447
vt 0.250000 0.066987
vt 0.266747 0.220994
vt 0.370591 0.017037
vt 0.383373 0.172997
vt 0.500000 0.000000
vt 0.500000 0.125000
vt 0.500000 0.250000
vt 0.391747 0.312500
vt 0.500000 0.375000
vt 0.391747 0.437500
vt 0.500000 0.500000
vt 0.391747 0.562500
vt 0.608253 0.312500
vt 0.616627 0.172997
vt 0.629410 0.017037
vt 0.750000 0.066987
vt 0.733253 0.220994
vt 0.716506 0.375000
vt 0.853553 0.146447
vt 0.849880 0.297997
vt 0.933013 0.250000
vt 0.982963 0.370591
vt 1.000000 0.500000
vt 0.858253 0.437500
vt 0.982963 0.629410
vt 0.841506 0.562500
vt 0.933013 0.750000
vt 0.824759 0.687500
vt 0.716506 0.625000
vt 0.716506 0.500000
vt 0.608253 0.562500
vt 0.608253 0.437500
vt 0.608253 0.687500
vt 0.724880 0.764503
vt 0.853553 0.853553
vt 0.750000 0.933013
vt 0.625000 0.841506
vt 0.500000 0.750000
vt 0.629409 0.982963
vt 0.500000 0.904006
vt 0.500000 1.000000
vt 0.370590 0.982963
vt 0.250000 0.933013
vt 0.375000 0.841506
vt 0.146447 0.853553
vt 0.275120 0.764503
vt 0.391747 0.687500
vt 0.500000 0.625000
vt 0.066987 0.750000
vt 0.017037 0.629409
vt 0.000000 0.500000
vt 0.017037 0.370590
vt 0.066987 0.250000
vt 0.146447 0.146447
vt 0.250000 0.066987
vt 0.370591 0.017037
vt 0.500000 0.000000
vt 0.629410 0.017037
vt 0.750000 0.066987
vt 0.853553 0.146447
vt 0.933013 0.250000
vt 0.982963 0.370591
vt 1.000000 0.500000
vt 0.982963 0.629410
vt 0.933013 0.750000
vt 0.853553 0.853553
vt 0.750000 0.933013
vt 0.629409 0.982963
vt 0.500000 1.000000
vt 0.370590 0.982963
vt 0.250000 0.933013
vt 0.146447 0.853553
vn 0.000000 0.000000 -1.000000
vn 0.000000 0.000000 -1.000000
vn 0.000000 0.000000 -1.000000
vn 0.000000 0.000000 -1.000000
vn 0.000000 0.000000 -1.000000
vn 0.000000 0.000000 -1.000000
vn 0.000000 0.000000 -1.000000
vn -0.000000 0.000000 -1.000000
vn 0.000000 0.000000 -1.000000
vn 0.000000 0.000000 -1.000000
vn -0.000000 0.000000 -1.000000
vn 0.000000 0.000000 -1.000000
vn 0.000000 0.000000 -1.000000
vn 0.000000 0.000000 -1.000000
vn -0.000000 0.000000 -1.000000
vn 0.000000 0.000000 -1.000000
vn -0.000000 0.000000 -1.000000
vn 0.000000 0.000000 -1.000000
vn 0.000000 0.000000 -1.000000
vn 0.000000 0.000000 -1.000000
vn 0.000000 0.000000 -1.000000
vn 0.000000 0.000000 -1.000000
vn 0.000000 0.000000 -1.000000
vn 0.000000 0.000000 -1.000000
vn 0.000000 0.000000 -1.000000
vn -0.000000 0.000000 -1.000000
vn -0.000000 0.000000 -1.000000
vn 0.000000 0.000000 -1.000000
vn -0.000000 0.000000 -1.000000
vn 0.000000 0.000000 -1.000000
vn 0.000000 0.000000 -1.000000
vn 0.000000 0.000000 -1.000000
vn 0.000000 0.000000 -1.000000
vn 0.000000 0.000000 -1.000000
vn 0.000000 0.000000 -1.000000
vn -0.000000 0.000000 -1.000000
vn -0.000000 0.000000 -1.000000
vn -0.000000 0.000000 -1.000000
vn -0.000000 0.000000 -1.000000
vn 0.000000 0.000000 -1.000000
vn 0.000000 0.000000 -1.000000
vn 0.000000 0.000000 -1.000000
vn -0.000000 0.000000 -1.000000
vn 0.000000 0.000000 -1.000000
vn -0.000000 0.000000 -1.000000
vn -0.000000 0.000000 -1.000000
vn 0.000000 0.000000 -1.000000
vn 0.000000 0.000000 -1.000000
vn -0.000000 0.000000 -1.000000
vn 0.000000 0.000000 -1.000000
vn -0.000000 0.000000 -1.000000
vn -0.000000 0.000000 -1.000000
vn 0.000000 0.000000 -1.000000
vn 0.000000 0.000000 -1.000000
vn 0.000000 0.000000 -1.000000
vn -0.000000 0.000000 -1.000000
vn 0.000000 0.000000 -1.000000
vn 0.000000 0.000000 -1.000000
vn 0.000000 0.000000 -1.000000
vn 0.000000 0.000000 -1.000000
vn -0.000000 0.000000 -1.000000
vn 0.000000 0.000000 1.000000
vn 0.000000 0.000000 1.000000
vn 0.000000 0.000000 1.000000
vn 0.000000 0.000000 1.000000
vn 0.000000 0.000000 1.000000
vn 0.000000 0.000000 1.000000
vn 0.000000 0.000000 1.000000
vn 0.000000 0.000000 1.000000
vn 0.000000 0.000000 1.000000
vn 0.000000 0.000000 1.000000
vn 0.000000 0.000000 1.000000
vn 0.000000 0.000000 1.000000
vn 0.000000 0.000000 1.000000
vn 0.000000 0.000000 1.000000
vn 0.000000 0.000000 1.000000
vn 0.000000 0.000000 1.000000
vn 0.000000 0.000000 1.000000
vn 0.000000 0.000000 1.000000
vn 0.000000 0.000000 1.000000
vn 0.000000 0.000000 1.000000
vn 0.000000 0.000000 1.000000
vn 0.000000 0.000000 1.000000
vn 0.000000 0.000000 1.000000
vn 0.000000 0.000000 1.000000
vn 0.000000 0.000000 1.000000
vn 0.000000 0.000000 1.000000
vn 0.000000 0.000000 1.000000
vn 0.000000 0.000000 1.000000
vn 0.000000 0.000000 1.000000
vn 0.000000 0.000000 1.000000
vn 0.000000 0.000000 1.000000
vn 0.000000 0.000000 1.000000
vn 0.000000 0.000000 1.000000
vn 0.000000 0.000000 1.000000
vn 0.000000 0.000000 1.000000
vn 0.000000 0.000000 1.000000
vn 0.000000 0.000000 1.000000
vn 0.000000 0.000000 1.000000
vn 0.000000 0.000000 1.000000
vn 0.000000 0.000000 1.000000
vn 0.000000 0.000000 1.000000
vn 0.000000 0.000000 1.000000
vn 0.000000 0.000000 1.000000
vn 0.000000 0.000000 1.000000
vn 0.000000 0.000000 1.000000
vn 0.000000 0.000000 1.000000
vn 0.000000 0.000000 1.000000
vn 0.000000 0.000000 1.000000
vn 0.000000 0.000000 1.000000
vn 0.000000 0.000000 1.000000
vn 0.000000 0.000000 1.000000
vn 0.000000 0.000000 1.000000
vn 0.000000 0.000000 1.000000
vn 0.000000 0.000000 1.000000
vn 0.000000 0.000000 1.000000
vn 0.000000 0.000000 1.000000
vn 0.000000 0.000000 1.000000
vn 0.000000 0.000000 1.000000
vn 0.000000 0.000000 1.000000
vn 0.000000 0.000000 1.000000
vn 0.000000 0.000000 1.000000
vn -0.687611 0.726079 0.000000
vn -0.687611 0.726079 0.000000
vn -0.897967 0.440062 0.000000
vn -0.897967 0.440062 0.000000
vn -1.000000 -0.000000 0.000000
vn -1.000000 -0.000000 0.000000
vn -0.897967 -0.440063 0.000000
vn -0.897967 -0.440063 0.000000
vn -0.687611 -0.726079 0.000000
vn -0.687611 -0.726079 0.000000
vn -0.479736 -0.877413 0.000000
vn -0.479736 -0.877413 0.000000
vn -0.301031 -0.953614 0.000000
vn -0.301031 -0.953614 0.000000
vn -0.144957 -0.989438 0.000000
vn -0.144957 -0.989438 0.000000
vn -0.000000 -1.000000 0.000000
vn -0.000000 -1.000000 0.000000
vn 0.144957 -0.989438 0.000000
vn 0.144957 -0.989438 0.000000
vn 0.301031 -0.953614 0.000000
vn 0.301031 -0.953614 0.000000
vn 0.479737 -0.877413 0.000000
vn 0.479737 -0.877413 0.000000
vn 0.687611 -0.726079 0.000000
vn 0.687611 -0.726079 0.000000
vn 0.897967 -0.440062 0.000000
vn 0.897967 -0.440062 0.000000
vn 1.000000 0.000000 0.000000
vn 1.000000 0.000000 0.000000
vn 0.897967 0.440063 0.000000
vn 0.897967 0.440063 0.000000
vn 0.687611 0.726079 0.000000
vn 0.687611 0.726079 0.000000
vn 0.479736 0.877413 0.000000
vn 0.479736 0.877413 0.000000
vn 0.301030 0.953615 0.000000
vn 0.301030 0.953615 0.000000
vn 0.144957 0.989438 0.000000
vn 0.144957 0.989438 0.000000
vn 0.000000 1.000000 0.000000
vn 0.000000 1.000000 0.000000
vn -0.144957 0.989438 0.000000
vn -0.144957 0.989438 0.000000
vn -0.301031 0.953614 0.000000
vn -0.301031 0.953614 0.000000
vn -0.479736 0.877413 0.000000
vn -0.479736 0.877413 0.000000
s 1
g pDisc1 OpenSign
usemtl initialShadingGroup
f 62/23/1 65/24/2 64/20/3 63/11/4
f 64/20/3 65/24/2 67/124/5 66/123/6
f 67/124/5 65/24/2 69/22/7 68/125/8
f 69/22/7 65/24/2 62/23/1 70/12/9
f 69/22/7 72/28/10 71/126/11 68/125/8
f 71/126/11 72/28/10 74/128/12 73/127/13
f 74/128/12 72/28/10 76/27/14 75/129/15
f 76/27/14 72/28/10 69/22/7 70/12/9
f 76/27/14 78/32/16 77/130/17 75/129/15
f 77/130/17 78/32/16 80/30/18 79/131/19
f 80/30/18 78/32/16 82/31/20 81/10/21
f 82/31/20 78/32/16 76/27/14 70/12/9
f 82/31/20 84/35/22 83/33/23 81/10/21
f 83/33/23 84/35/22 86/34/24 85/7/25
f 86/34/24 84/35/22 62/23/1 63/11/4
f 62/23/1 84/35/22 82/31/20 70/12/9
f 87/38/26 88/39/27 80/30/18 81/10/21
f 80/30/18 88/39/27 89/132/28 79/131/19
f 89/132/28 88/39/27 91/37/29 90/133/30
f 91/37/29 88/39/27 87/38/26 92/16/31
f 91/37/29 94/43/32 93/134/33 90/133/30
f 93/134/33 94/43/32 96/136/34 95/135/35
f 96/136/34 94/43/32 98/42/36 97/137/37
f 98/42/36 94/43/32 91/37/29 92/16/31
f 98/42/36 100/47/38 99/138/39 97/137/37
f 99/138/39 100/47/38 102/45/40 101/139/41
f 102/45/40 100/47/38 104/46/42 103/15/43
f 104/46/42 100/47/38 98/42/36 92/16/31
f 104/46/42 106/49/44 105/48/45 103/15/43
f 105/48/45 106/49/44 83/33/23 85/7/25
f 83/33/23 106/49/44 87/38/26 81/10/21
f 87/38/26 106/49/44 104/46/42 92/16/31
f 107/52/46 108/53/47 102/45/40 103/15/43
f 102/45/40 108/53/47 109/140/48 101/139/41
f 109/140/48 108/53/47 111/51/49 110/141/50
f 111/51/49 108/53/47 107/52/46 112/19/51
f 111/51/49 114/57/52 113/142/53 110/141/50
f 113/142/53 114/57/52 116/144/54 115/143/55
f 116/144/54 114/57/52 118/56/56 117/145/57
f 118/56/56 114/57/52 111/51/49 112/19/51
f 118/56/56 120/60/58 119/146/59 117/145/57
f 119/146/59 120/60/58 64/20/3 66/123/6
f 64/20/3 120/60/58 121/59/60 63/11/4
f 121/59/60 120/60/58 118/56/56 112/19/51
f 121/59/60 122/61/61 86/34/24 63/11/4
f 86/34/24 122/61/61 105/48/45 85/7/25
f 105/48/45 122/61/61 107/52/46 103/15/43
f 107/52/46 122/61/61 121/59/60 112/19/51
s 2
f 23/62/62 11/63/63 20/64/64 24/65/65
f 20/64/64 6/66/66 21/67/67 24/65/65
f 21/67/67 8/68/68 22/69/69 24/65/65
f 22/69/69 12/70/70 23/62/62 24/65/65
f 22/69/69 8/68/68 25/71/71 28/72/72
f 25/71/71 1/73/73 26/74/74 28/72/72
f 26/74/74 9/75/75 27/76/76 28/72/72
f 27/76/76 12/70/70 22/69/69 28/72/72
f 27/76/76 9/75/75 29/77/77 32/78/78
f 29/77/77 4/79/79 30/80/80 32/78/78
f 30/80/80 10/81/81 31/82/82 32/78/78
f 31/82/82 12/70/70 27/76/76 32/78/78
f 31/82/82 10/81/81 33/83/83 35/84/84
f 33/83/83 7/85/85 34/86/86 35/84/84
f 34/86/86 11/63/63 23/62/62 35/84/84
f 23/62/62 12/70/70 31/82/82 35/84/84
f 38/87/87 10/81/81 30/80/80 39/88/88
f 30/80/80 4/79/79 36/89/89 39/88/88
f 36/89/89 13/90/90 37/91/91 39/88/88
f 37/91/91 16/92/92 38/87/87 39/88/88
f 37/91/91 13/90/90 40/93/93 43/94/94
f 40/93/93 2/95/95 41/96/96 43/94/94
f 41/96/96 14/97/97 42/98/98 43/94/94
f 42/98/98 16/92/92 37/91/91 43/94/94
f 42/98/98 14/97/97 44/99/99 47/100/100
f 44/99/99 5/101/101 45/102/102 47/100/100
f 45/102/102 15/103/103 46/104/104 47/100/100
f 46/104/104 16/92/92 42/98/98 47/100/100
f 46/104/104 15/103/103 48/105/105 49/106/106
f 48/105/105 7/85/85 33/83/83 49/106/106
f 33/83/83 10/81/81 38/87/87 49/106/106
f 38/87/87 16/92/92 46/104/104 49/106/106
f 52/107/107 15/103/103 45/102/102 53/108/108
f 45/102/102 5/101/101 50/109/109 53/108/108
f 50/109/109 17/110/110 51/111/111 53/108/108
f 51/111/111 19/112/112 52/107/107 53/108/108
f 51/111/111 17/110/110 54/113/113 57/114/114
f 54/113/113 3/115/115 55/116/116 57/114/114
f 55/116/116 18/117/117 56/118/118 57/114/114
f 56/118/118 19/112/112 51/111/111 57/114/114
f 56/118/118 18/117/117 58/119/119 60/120/120
f 58/119/119 6/66/66 20/64/64 60/120/120
f 20/64/64 11/63/63 59/121/121 60/120/120
f 59/121/121 19/112/112 56/118/118 60/120/120
f 59/121/121 11/63/63 34/86/86 61/122/122
f 34/86/86 7/85/85 48/105/105 61/122/122
f 48/105/105 15/103/103 52/107/107 61/122/122
f 52/107/107 19/112/112 59/121/121 61/122/122
s 3
f 6/6/123 66/123/124 67/124/125 21/21/126
f 21/21/126 67/124/125 68/125/127 8/8/128
f 8/8/128 68/125/127 71/126/129 25/25/130
f 25/25/130 71/126/129 73/127/131 1/1/132
f 1/1/132 73/127/131 74/128/133 26/26/134
f 26/26/134 74/128/133 75/129/135 9/9/136
f 9/9/136 75/129/135 77/130/137 29/29/138
f 29/29/138 77/130/137 79/131/139 4/4/140
f 4/4/140 79/131/139 89/132/141 36/36/142
f 36/36/142 89/132/141 90/133/143 13/13/144
f 13/13/144 90/133/143 93/134/145 40/40/146
f 40/40/146 93/134/145 95/135/147 2/2/148
f 2/2/148 95/135/147 96/136/149 41/41/150
f 41/41/150 96/136/149 97/137/151 14/14/152
f 14/14/152 97/137/151 99/138/153 44/44/154
f 44/44/154 99/138/153 101/139/155 5/5/156
f 5/5/156 101/139/155 109/140/157 50/50/158
f 50/50/158 109/140/157 110/141/159 17/17/160
f 17/17/160 110/141/159 113/142/161 54/54/162
f 54/54/162 113/142/161 115/143/163 3/3/164
f 3/3/164 115/143/163 116/144/165 55/55/166
f 55/55/166 116/144/165 117/145/167 18/18/168
f 18/18/168 117/145/167 119/146/169 58/58/170
f 58/58/170 119/146/169 66/123/124 6/6/123
